<?xml version="1.0" standalone="no"?>
<!DOCTYPE svg PUBLIC "-//W3C//DTD SVG 20010904//EN"
 "http://www.w3.org/TR/2001/REC-SVG-20010904/DTD/svg10.dtd">
<svg version="1.0" xmlns="http://www.w3.org/2000/svg"
 width="500.000000pt" height="500.000000pt" viewBox="0 0 500.000000 500.000000"
 preserveAspectRatio="xMidYMid meet">

<g transform="translate(0.000000,500.000000) scale(0.100000,-0.100000)"
fill="#FFEB3B" stroke="">
<path d="M1611 4145 c-1 -67 19 -114 94 -220 35 -49 40 -63 31 -77 -25 -40 64
-290 134 -378 17 -21 30 -50 30 -64 0 -29 42 -60 176 -130 l72 -37 -16 -42
c-9 -23 -17 -43 -18 -45 -1 -2 -73 38 -160 89 -321 184 -684 350 -891 405
-132 35 -335 44 -447 20 -144 -33 -269 -112 -318 -202 -36 -69 -43 -120 -24
-195 24 -93 61 -152 148 -234 70 -68 85 -77 153 -97 74 -22 76 -23 86 -62 37
-135 132 -239 267 -288 80 -30 258 -30 394 0 223 49 497 145 683 241 50 25 93
47 96 49 3 1 13 -21 23 -50 9 -29 19 -58 22 -64 3 -6 -28 -23 -73 -39 -172
-61 -303 -140 -303 -182 0 -9 -28 -45 -61 -81 -113 -120 -248 -356 -234 -409
4 -18 -1 -37 -19 -63 -30 -46 -95 -177 -126 -253 -12 -32 -32 -64 -44 -72 -20
-15 -20 -15 -1 -15 46 0 66 24 109 130 51 128 106 231 126 240 8 4 23 11 34
16 11 6 31 46 52 104 63 179 180 370 225 370 12 0 53 23 93 52 39 29 112 74
162 100 l91 48 28 -30 29 -30 -45 -46 c-27 -27 -76 -61 -126 -86 -45 -22 -112
-62 -148 -90 -99 -74 -189 -208 -171 -253 3 -8 -8 -40 -24 -72 -70 -141 -132
-439 -100 -478 8 -10 10 -30 5 -61 -3 -26 -7 -103 -7 -172 0 -69 -4 -136 -9
-149 -10 -27 -2 -29 28 -8 20 14 21 22 20 192 -1 139 2 178 12 181 8 3 22 13
32 23 16 16 19 35 19 127 0 176 42 369 85 398 12 8 46 54 75 102 52 84 156
202 179 202 7 0 -6 -33 -28 -72 -46 -86 -93 -215 -112 -313 -20 -103 -18 -390
4 -477 58 -231 147 -364 362 -538 92 -75 181 -186 197 -248 7 -23 15 -42 18
-42 3 0 11 19 18 43 16 61 105 172 197 247 215 174 304 307 362 538 22 87 24
374 4 477 -19 98 -66 227 -112 313 -22 39 -35 72 -28 72 23 0 127 -118 179
-202 29 -48 63 -94 75 -102 43 -29 85 -222 85 -398 0 -92 3 -111 19 -127 10
-10 24 -20 32 -23 10 -3 13 -42 12 -181 -1 -170 0 -178 20 -192 30 -21 38 -19
28 8 -5 12 -9 82 -9 154 0 72 -4 147 -8 168 -4 23 -2 45 6 61 31 58 -47 404
-115 508 -9 13 -13 30 -9 39 18 47 -70 179 -171 255 -36 28 -103 68 -148 90
-50 25 -99 59 -126 86 l-45 46 29 30 28 30 91 -48 c50 -26 123 -71 162 -100
40 -29 81 -52 93 -52 45 0 162 -191 225 -370 19 -52 41 -98 50 -102 9 -5 24
-12 34 -16 22 -11 82 -122 129 -242 20 -52 42 -101 47 -107 6 -7 27 -15 46
-19 34 -6 34 -6 14 10 -12 8 -32 41 -44 73 -31 76 -96 207 -126 253 -18 26
-23 45 -19 63 14 53 -121 289 -234 409 -33 36 -61 72 -61 81 0 42 -131 121
-303 182 -45 16 -76 33 -73 39 3 6 13 35 22 64 10 29 20 51 23 50 3 -2 47 -24
96 -49 280 -144 706 -269 917 -269 62 0 154 22 215 51 95 46 183 156 212 264
10 40 12 41 88 64 72 21 82 27 159 104 88 89 116 134 140 228 19 73 12 125
-24 193 -49 90 -174 169 -318 202 -112 24 -315 15 -447 -20 -207 -55 -562
-217 -881 -400 -93 -53 -169 -96 -170 -94 -1 2 -9 22 -18 45 l-16 42 72 37
c134 70 176 101 176 130 0 14 13 43 30 64 70 88 159 338 134 378 -9 14 -4 28
31 77 75 106 95 153 94 220 l-1 60 -14 -57 c-7 -32 -23 -77 -35 -100 -39 -76
-117 -185 -137 -190 -15 -4 -26 -34 -56 -159 -20 -85 -47 -178 -61 -206 -20
-45 -28 -53 -51 -53 -21 0 -47 -20 -111 -86 -47 -47 -85 -84 -87 -83 -35 56
-67 97 -95 119 -34 28 -34 30 -23 68 10 31 18 41 41 45 51 11 64 92 24 153
-14 22 -62 47 -79 42 -16 -4 -76 61 -71 76 3 8 25 43 48 79 39 60 48 67 140
113 106 52 133 77 47 43 -100 -38 -140 -70 -197 -154 -43 -64 -58 -79 -75 -76
-27 4 -165 4 -192 0 -17 -3 -32 12 -75 76 -57 84 -97 116 -196 154 -87 34 -60
9 46 -43 92 -46 101 -53 140 -113 23 -36 45 -71 48 -79 8 -21 -57 -78 -92 -80
-85 -5 -116 -165 -37 -189 26 -7 35 -17 44 -48 11 -37 10 -39 -23 -67 -28 -22
-60 -63 -95 -119 -2 -1 -40 36 -87 83 -64 66 -90 86 -111 86 -23 0 -31 8 -51
53 -14 28 -41 121 -61 206 -30 125 -41 155 -56 159 -20 5 -98 114 -137 190
-12 23 -28 68 -35 100 l-14 57 -1 -60z m999 -430 c7 -8 8 -15 2 -15 -5 0 -15
7 -22 15 -7 8 -8 15 -2 15 5 0 15 -7 22 -15z m60 -103 c12 -44 12 -89 0 -117
-6 -14 -9 0 -9 45 -1 45 -7 78 -21 105 -25 49 -25 57 0 27 11 -13 24 -40 30
-60z m-385 51 c-13 -34 -24 -113 -19 -128 5 -11 -1 -15 -19 -15 -27 0 -37 16
-37 61 0 34 23 85 42 92 28 11 40 7 33 -10z m461 9 c39 -27 59 -113 32 -140
-18 -18 -51 -15 -44 3 5 15 -6 94 -19 128 -7 18 10 23 31 9z m-1793 -17 c144
-25 290 -77 538 -190 137 -63 435 -221 444 -236 4 -5 23 -16 43 -25 49 -20
132 -74 132 -85 0 -5 -19 -10 -42 -11 l-43 -1 37 -4 38 -4 -6 -52 c-4 -29 -7
-53 -8 -54 -3 -4 -347 -45 -419 -49 -45 -3 -122 -9 -172 -14 -185 -17 -250
-19 -235 -8 12 7 10 8 -5 2 -11 -4 -87 -10 -170 -12 l-150 -4 20 24 c19 22 19
22 -8 -1 l-28 -25 -132 12 c-152 14 -219 30 -280 66 -62 36 -160 144 -192 212
-43 91 -47 224 -7 224 14 0 14 2 3 9 -42 27 165 206 215 187 8 -3 14 -1 14 4
0 10 83 36 135 43 72 10 199 6 278 -8z m3455 -10 c28 -9 52 -20 52 -25 0 -5 6
-7 14 -4 50 19 257 -160 215 -187 -11 -7 -11 -9 3 -9 40 0 36 -133 -7 -224
-32 -68 -130 -176 -192 -212 -61 -36 -128 -52 -280 -66 l-132 -12 -28 25 c-25
21 -26 21 -9 2 l19 -23 -129 0 c-71 0 -144 4 -162 9 -18 6 -30 6 -27 1 5 -8
-100 -4 -245 10 -47 5 -123 11 -170 14 -81 5 -412 44 -416 49 -1 1 -4 25 -8
54 l-6 52 38 4 37 4 -42 1 c-24 1 -43 6 -43 11 0 11 83 65 132 85 20 9 39 20
43 25 9 16 308 174 450 239 236 107 385 161 527 188 93 17 293 12 366 -11z
m-1786 -201 c57 -20 125 -72 164 -125 43 -58 79 -138 67 -150 -20 -20 -203
-42 -353 -42 -152 0 -333 22 -354 43 -15 15 50 133 103 187 101 102 239 135
373 87z m178 -356 c0 -5 -4 -8 -10 -8 -5 0 -10 10 -10 23 0 18 2 19 10 7 5 -8
10 -18 10 -22z m7 -110 c-6 -77 -14 -108 -27 -108 -5 0 -4 15 1 32 5 18 9 59
9 90 0 37 4 58 11 58 9 0 10 -21 6 -72z m-717 -12 c0 -8 -6 -17 -12 -19 -8 -3
-6 -6 5 -6 11 -1 17 -9 17 -25 0 -21 -17 -32 -122 -84 -116 -57 -356 -152
-423 -168 -16 -3 -55 -15 -85 -24 -95 -32 -271 -61 -366 -61 -95 0 -147 8
-139 21 3 5 -3 6 -14 3 -27 -7 -114 41 -168 93 -39 36 -45 47 -33 54 12 8 11
10 -6 10 -22 0 -52 55 -70 124 l-7 28 94 -7 c75 -6 99 -11 119 -28 14 -12 19
-15 13 -7 -7 8 -13 16 -13 19 0 4 94 7 208 8 115 1 274 7 353 13 79 7 182 13
227 16 46 2 100 7 120 11 21 3 93 14 162 23 69 10 128 18 133 19 4 0 7 -5 7
-13z m989 -11 c74 -9 138 -18 142 -20 3 -3 49 -7 100 -9 52 -2 159 -9 238 -16
79 -6 238 -12 353 -13 114 -1 208 -4 208 -8 0 -3 -6 -11 -12 -19 -7 -8 -2 -5
12 7 20 17 44 22 119 28 l94 7 -7 -28 c-18 -69 -48 -124 -70 -124 -17 0 -18
-2 -6 -10 34 -21 -155 -159 -201 -147 -11 3 -17 2 -14 -3 8 -13 -44 -21 -139
-21 -95 0 -271 29 -366 61 -30 9 -68 21 -85 24 -67 16 -307 111 -422 168 -106
52 -123 63 -123 84 0 16 6 24 18 25 10 0 12 3 5 6 -20 8 -16 35 5 29 9 -3 77
-12 151 -21z m-834 -127 c48 -14 114 -22 208 -25 149 -6 251 5 351 38 32 11
61 18 64 15 3 -3 -11 -39 -32 -80 -58 -118 -149 -186 -275 -207 -165 -26 -316
50 -395 200 -43 81 -45 96 -13 86 12 -4 54 -16 92 -27z m529 -289 c33 -39 58
-87 54 -101 -3 -7 -14 8 -27 33 -13 24 -34 56 -49 72 -14 15 -21 27 -15 27 6
0 23 -14 37 -31z m76 -150 c0 -11 -4 -17 -10 -14 -5 3 -10 13 -10 21 0 8 5 14
10 14 6 0 10 -9 10 -21z m-634 -81 c77 -20 115 -23 284 -23 206 0 306 16 416
65 l44 19 24 -48 c27 -52 66 -162 66 -184 0 -16 -84 -55 -170 -80 -218 -63
-542 -63 -760 0 -86 25 -170 64 -170 80 0 22 39 132 66 184 l24 48 44 -19 c24
-11 83 -30 132 -42z m-228 -444 c42 -29 176 -72 282 -89 124 -21 144 -30 45
-22 -127 12 -323 74 -356 113 -15 19 1 18 29 -2z m3 -83 c268 -121 750 -121
1018 0 35 16 68 29 72 29 10 0 3 -84 -13 -168 -9 -51 -13 -56 -68 -91 -119
-77 -275 -111 -509 -111 -219 0 -380 37 -498 115 -47 31 -52 38 -61 87 -16 84
-23 168 -13 168 4 0 37 -13 72 -29z m469 -31 c0 -5 -11 -10 -24 -10 -14 0 -28
5 -31 10 -4 6 7 10 24 10 17 0 31 -4 31 -10z m470 -318 c0 -5 -7 -17 -15 -28
-15 -19 -20 -8 -9 20 6 17 24 22 24 8z m-44 -80 c-18 -35 -107 -135 -114 -128
-3 3 13 25 35 48 21 24 48 58 58 76 24 39 41 43 21 4z m-606 -178 c52 -12 120
-17 220 -17 100 0 168 5 220 17 41 9 89 19 105 22 l30 6 -31 -29 c-17 -15 -68
-59 -115 -98 l-84 -70 -125 0 -125 0 -84 70 c-47 39 -98 83 -115 98 l-31 29
30 -6 c17 -3 64 -13 105 -22z"/>
<path d="M931 3624 c0 -11 3 -14 6 -6 3 7 2 16 -1 19 -3 4 -6 -2 -5 -13z"/>
<path d="M940 3581 c0 -6 4 -13 10 -16 6 -3 7 1 4 9 -7 18 -14 21 -14 7z"/>
<path d="M607 3569 c7 -7 15 -10 18 -7 3 3 -2 9 -12 12 -14 6 -15 5 -6 -5z"/>
<path d="M732 3516 c7 -8 15 -12 17 -11 5 6 -10 25 -20 25 -5 0 -4 -6 3 -14z"/>
<path d="M990 3520 c0 -5 5 -10 11 -10 5 0 7 5 4 10 -3 6 -8 10 -11 10 -2 0
-4 -4 -4 -10z"/>
<path d="M510 3475 c19 -19 36 -35 39 -35 3 0 -10 16 -29 35 -19 19 -36 35
-39 35 -3 0 10 -16 29 -35z"/>
<path d="M857 3503 c18 -2 50 -2 70 0 21 2 7 4 -32 4 -38 0 -55 -2 -38 -4z"/>
<path d="M750 3484 c0 -6 7 -19 16 -30 14 -18 14 -18 3 6 -14 31 -19 36 -19
24z"/>
<path d="M1080 3480 c8 -5 20 -10 25 -10 6 0 3 5 -5 10 -8 5 -19 10 -25 10 -5
0 -3 -5 5 -10z"/>
<path d="M587 3359 c4 -13 8 -18 11 -10 2 7 -1 18 -6 23 -8 8 -9 4 -5 -13z"/>
<path d="M540 3356 c0 -2 8 -10 18 -17 15 -13 16 -12 3 4 -13 16 -21 21 -21
13z"/>
<path d="M830 3357 c0 -2 15 -16 33 -33 l32 -29 -29 33 c-28 30 -36 37 -36 29z"/>
<path d="M648 3257 c34 -35 60 -66 57 -69 -3 -3 1 -8 10 -12 11 -4 14 -2 8 8
-11 20 -123 136 -131 136 -3 0 22 -28 56 -63z"/>
<path d="M904 3292 c4 -6 -7 -12 -26 -15 -18 -2 -10 -4 19 -3 29 0 51 1 50 2
-16 12 -48 23 -43 16z"/>
<path d="M1190 3296 c0 -2 8 -10 18 -17 15 -13 16 -12 3 4 -13 16 -21 21 -21
13z"/>
<path d="M558 3233 c7 -3 16 -2 19 1 4 3 -2 6 -13 5 -11 0 -14 -3 -6 -6z"/>
<path d="M1250 3231 c0 -9 30 -24 36 -18 2 1 -6 8 -16 15 -11 7 -20 8 -20 3z"/>
<path d="M1088 3223 c7 -3 16 -2 19 1 4 3 -2 6 -13 5 -11 0 -14 -3 -6 -6z"/>
<path d="M1135 3210 c3 -5 10 -10 16 -10 5 0 9 5 9 10 0 6 -7 10 -16 10 -8 0
-12 -4 -9 -10z"/>
<path d="M1208 3213 c7 -3 16 -2 19 1 4 3 -2 6 -13 5 -11 0 -14 -3 -6 -6z"/>
<path d="M1398 3183 c7 -3 16 -2 19 1 4 3 -2 6 -13 5 -11 0 -14 -3 -6 -6z"/>
<path d="M1458 3173 c7 -3 16 -2 19 1 4 3 -2 6 -13 5 -11 0 -14 -3 -6 -6z"/>
<path d="M1518 3163 c7 -3 16 -2 19 1 4 3 -2 6 -13 5 -11 0 -14 -3 -6 -6z"/>
<path d="M1588 3153 c7 -3 16 -2 19 1 4 3 -2 6 -13 5 -11 0 -14 -3 -6 -6z"/>
<path d="M1658 3143 c6 -2 18 -2 25 0 6 3 1 5 -13 5 -14 0 -19 -2 -12 -5z"/>
<path d="M1738 3133 c6 -2 18 -2 25 0 6 3 1 5 -13 5 -14 0 -19 -2 -12 -5z"/>
<path d="M1828 3123 c6 -2 18 -2 25 0 6 3 1 5 -13 5 -14 0 -19 -2 -12 -5z"/>
<path d="M1923 3113 c9 -2 23 -2 30 0 6 3 -1 5 -18 5 -16 0 -22 -2 -12 -5z"/>
<path d="M658 3093 c12 -2 32 -2 45 0 12 2 2 4 -23 4 -25 0 -35 -2 -22 -4z"/>
<path d="M992 3080 c0 -14 2 -19 5 -12 2 6 2 18 0 25 -3 6 -5 1 -5 -13z"/>
<path d="M1528 3083 c17 -2 47 -2 65 0 17 2 3 4 -33 4 -36 0 -50 -2 -32 -4z"/>
<path d="M1838 3083 c18 -2 45 -2 60 0 15 2 0 4 -33 4 -33 0 -45 -2 -27 -4z"/>
<path d="M1383 3073 c9 -2 23 -2 30 0 6 3 -1 5 -18 5 -16 0 -22 -2 -12 -5z"/>
<path d="M2013 3073 c9 -2 25 -2 35 0 9 3 1 5 -18 5 -19 0 -27 -2 -17 -5z"/>
<path d="M885 3060 c3 -5 11 -10 16 -10 6 0 7 5 4 10 -3 6 -11 10 -16 10 -6 0
-7 -4 -4 -10z"/>
<path d="M1288 3063 c7 -3 16 -2 19 1 4 3 -2 6 -13 5 -11 0 -14 -3 -6 -6z"/>
<path d="M1499 3053 c-13 -16 -12 -17 4 -4 9 7 17 15 17 17 0 8 -8 3 -21 -13z"/>
<path d="M1218 3053 c7 -3 16 -2 19 1 4 3 -2 6 -13 5 -11 0 -14 -3 -6 -6z"/>
<path d="M995 3030 c-3 -5 -1 -10 4 -10 6 0 11 5 11 10 0 6 -2 10 -4 10 -3 0
-8 -4 -11 -10z"/>
<path d="M1903 3033 c9 -2 23 -2 30 0 6 3 -1 5 -18 5 -16 0 -22 -2 -12 -5z"/>
<path d="M1828 3023 c7 -3 16 -2 19 1 4 3 -2 6 -13 5 -11 0 -14 -3 -6 -6z"/>
<path d="M1014 2990 c0 -13 4 -16 10 -10 7 7 7 13 0 20 -6 6 -10 3 -10 -10z"/>
<path d="M4061 3624 c0 -11 3 -14 6 -6 3 7 2 16 -1 19 -3 4 -6 -2 -5 -13z"/>
<path d="M4380 3570 c-9 -6 -10 -10 -3 -10 6 0 15 5 18 10 8 12 4 12 -15 0z"/>
<path d="M3995 3520 c-3 -5 -1 -10 4 -10 6 0 11 5 11 10 0 6 -2 10 -4 10 -3 0
-8 -4 -11 -10z"/>
<path d="M4255 3519 c-11 -16 -1 -19 13 -3 7 8 8 14 3 14 -5 0 -13 -5 -16 -11z"/>
<path d="M4067 3503 c18 -2 50 -2 70 0 21 2 7 4 -32 4 -38 0 -55 -2 -38 -4z"/>
<path d="M4479 3473 l-34 -38 38 34 c20 19 37 36 37 38 0 8 -8 0 -41 -34z"/>
<path d="M3900 3480 c-8 -5 -10 -10 -5 -10 6 0 17 5 25 10 8 5 11 10 5 10 -5
0 -17 -5 -25 -10z"/>
<path d="M4231 3463 c-10 -26 -10 -27 4 -9 8 11 15 23 15 28 0 15 -7 8 -19
-19z"/>
<path d="M4403 3365 c-3 -9 -3 -18 -1 -21 3 -3 8 4 11 16 6 23 -1 27 -10 5z"/>
<path d="M4134 3328 l-29 -33 33 29 c30 28 37 36 29 36 -2 0 -16 -15 -33 -32z"/>
<path d="M4439 3343 c-13 -16 -12 -17 4 -4 16 13 21 21 13 21 -2 0 -10 -8 -17
-17z"/>
<path d="M4333 3251 c-65 -69 -75 -85 -48 -74 9 3 13 8 10 11 -3 3 23 34 57
69 34 35 58 62 53 62 -6 -1 -38 -32 -72 -68z"/>
<path d="M3789 3283 c-13 -16 -12 -17 4 -4 9 7 17 15 17 17 0 8 -8 3 -21 -13z"/>
<path d="M4073 3287 c-21 -11 -18 -13 30 -13 28 -1 37 1 19 3 -18 2 -30 9 -27
14 8 12 5 11 -22 -4z"/>
<path d="M3726 3224 c-11 -8 -16 -14 -10 -14 13 0 39 18 34 24 -3 2 -14 -2
-24 -10z"/>
<path d="M4428 3233 c7 -3 16 -2 19 1 4 3 -2 6 -13 5 -11 0 -14 -3 -6 -6z"/>
<path d="M3898 3223 c7 -3 16 -2 19 1 4 3 -2 6 -13 5 -11 0 -14 -3 -6 -6z"/>
<path d="M3768 3213 c6 -2 18 -2 25 0 6 3 1 5 -13 5 -14 0 -19 -2 -12 -5z"/>
<path d="M3840 3210 c0 -5 4 -10 9 -10 6 0 13 5 16 10 3 6 -1 10 -9 10 -9 0
-16 -4 -16 -10z"/>
<path d="M3588 3183 c7 -3 16 -2 19 1 4 3 -2 6 -13 5 -11 0 -14 -3 -6 -6z"/>
<path d="M3528 3173 c7 -3 16 -2 19 1 4 3 -2 6 -13 5 -11 0 -14 -3 -6 -6z"/>
<path d="M3468 3163 c7 -3 16 -2 19 1 4 3 -2 6 -13 5 -11 0 -14 -3 -6 -6z"/>
<path d="M3398 3153 c7 -3 16 -2 19 1 4 3 -2 6 -13 5 -11 0 -14 -3 -6 -6z"/>
<path d="M3318 3143 c6 -2 18 -2 25 0 6 3 1 5 -13 5 -14 0 -19 -2 -12 -5z"/>
<path d="M3238 3133 c6 -2 18 -2 25 0 6 3 1 5 -13 5 -14 0 -19 -2 -12 -5z"/>
<path d="M3148 3123 c6 -2 18 -2 25 0 6 3 1 5 -13 5 -14 0 -19 -2 -12 -5z"/>
<path d="M3053 3113 c9 -2 23 -2 30 0 6 3 -1 5 -18 5 -16 0 -22 -2 -12 -5z"/>
<path d="M4002 3080 c0 -14 2 -19 5 -12 2 6 2 18 0 25 -3 6 -5 1 -5 -13z"/>
<path d="M4298 3093 c12 -2 32 -2 45 0 12 2 2 4 -23 4 -25 0 -35 -2 -22 -4z"/>
<path d="M3108 3083 c18 -2 45 -2 60 0 15 2 0 4 -33 4 -33 0 -45 -2 -27 -4z"/>
<path d="M3408 3083 c17 -2 47 -2 65 0 17 2 3 4 -33 4 -36 0 -50 -2 -32 -4z"/>
<path d="M2953 3073 c9 -2 25 -2 35 0 9 3 1 5 -18 5 -19 0 -27 -2 -17 -5z"/>
<path d="M3593 3073 c9 -2 23 -2 30 0 6 3 -1 5 -18 5 -16 0 -22 -2 -12 -5z"/>
<path d="M3480 3066 c0 -2 8 -10 18 -17 15 -13 16 -12 3 4 -13 16 -21 21 -21
13z"/>
<path d="M3698 3063 c7 -3 16 -2 19 1 4 3 -2 6 -13 5 -11 0 -14 -3 -6 -6z"/>
<path d="M4095 3060 c-3 -5 -2 -10 4 -10 5 0 13 5 16 10 3 6 2 10 -4 10 -5 0
-13 -4 -16 -10z"/>
<path d="M3768 3053 c7 -3 16 -2 19 1 4 3 -2 6 -13 5 -11 0 -14 -3 -6 -6z"/>
<path d="M3073 3033 c9 -2 23 -2 30 0 6 3 -1 5 -18 5 -16 0 -22 -2 -12 -5z"/>
<path d="M3990 3030 c0 -5 5 -10 11 -10 5 0 7 5 4 10 -3 6 -8 10 -11 10 -2 0
-4 -4 -4 -10z"/>
<path d="M3158 3023 c7 -3 16 -2 19 1 4 3 -2 6 -13 5 -11 0 -14 -3 -6 -6z"/>
<path d="M3974 2999 c-3 -6 -2 -15 3 -20 5 -5 9 -1 9 11 0 23 -2 24 -12 9z"/>
<path d="M2279 3323 c-13 -16 -12 -17 4 -4 9 7 17 15 17 17 0 8 -8 3 -21 -13z"/>
<path d="M2239 3273 c-13 -16 -12 -17 4 -4 9 7 17 15 17 17 0 8 -8 3 -21 -13z"/>
<path d="M1650 2890 c-8 -5 -10 -10 -5 -10 6 0 17 5 25 10 8 5 11 10 5 10 -5
0 -17 -5 -25 -10z"/>
<path d="M1575 2861 c-23 -5 -26 -8 -13 -13 9 -4 24 0 35 7 10 8 16 14 13 13
-3 0 -18 -3 -35 -7z"/>
<path d="M1508 2843 c7 -3 16 -2 19 1 4 3 -2 6 -13 5 -11 0 -14 -3 -6 -6z"/>
<path d="M1448 2833 c7 -3 16 -2 19 1 4 3 -2 6 -13 5 -11 0 -14 -3 -6 -6z"/>
<path d="M969 2813 c-13 -17 -13 -17 6 -3 11 8 22 16 24 17 2 2 0 3 -6 3 -6 0
-17 -8 -24 -17z"/>
<path d="M1378 2823 c7 -3 16 -2 19 1 4 3 -2 6 -13 5 -11 0 -14 -3 -6 -6z"/>
<path d="M1038 2813 c6 -2 18 -2 25 0 6 3 1 5 -13 5 -14 0 -19 -2 -12 -5z"/>
<path d="M1283 2813 c9 -2 23 -2 30 0 6 3 -1 5 -18 5 -16 0 -22 -2 -12 -5z"/>
<path d="M1499 2793 l-24 -28 28 24 c25 23 32 31 24 31 -2 0 -14 -12 -28 -27z"/>
<path d="M1595 2770 c-11 -5 -16 -9 -11 -9 6 -1 -3 -16 -20 -33 -21 -24 -17
-22 14 7 37 34 48 47 40 44 -2 0 -12 -4 -23 -9z"/>
<path d="M875 2760 c3 -5 8 -10 11 -10 2 0 4 5 4 10 0 6 -5 10 -11 10 -5 0 -7
-4 -4 -10z"/>
<path d="M808 2753 c6 -2 18 -2 25 0 6 3 1 5 -13 5 -14 0 -19 -2 -12 -5z"/>
<path d="M1443 2753 c9 -2 25 -2 35 0 9 3 1 5 -18 5 -19 0 -27 -2 -17 -5z"/>
<path d="M1348 2743 c6 -2 18 -2 25 0 6 3 1 5 -13 5 -14 0 -19 -2 -12 -5z"/>
<path d="M1278 2733 c7 -3 16 -2 19 1 4 3 -2 6 -13 5 -11 0 -14 -3 -6 -6z"/>
<path d="M978 2723 c7 -3 16 -2 19 1 4 3 -2 6 -13 5 -11 0 -14 -3 -6 -6z"/>
<path d="M1218 2723 c7 -3 16 -2 19 1 4 3 -2 6 -13 5 -11 0 -14 -3 -6 -6z"/>
<path d="M1095 2710 c28 -4 61 -3 75 1 16 5 -2 7 -50 7 -70 -1 -72 -1 -25 -8z"/>
<path d="M3390 2864 c0 -10 38 -21 49 -15 9 6 3 10 -18 13 -17 2 -31 3 -31 2z"/>
<path d="M3478 2843 c7 -3 16 -2 19 1 4 3 -2 6 -13 5 -11 0 -14 -3 -6 -6z"/>
<path d="M3538 2833 c7 -3 16 -2 19 1 4 3 -2 6 -13 5 -11 0 -14 -3 -6 -6z"/>
<path d="M3608 2823 c7 -3 16 -2 19 1 4 3 -2 6 -13 5 -11 0 -14 -3 -6 -6z"/>
<path d="M4000 2823 c8 -3 22 -11 30 -17 13 -10 13 -9 1 7 -7 9 -21 17 -30 16
-13 0 -14 -1 -1 -6z"/>
<path d="M3490 2795 c13 -14 26 -25 28 -25 3 0 -5 11 -18 25 -13 14 -26 25
-28 25 -3 0 5 -11 18 -25z"/>
<path d="M3693 2813 c9 -2 23 -2 30 0 6 3 -1 5 -18 5 -16 0 -22 -2 -12 -5z"/>
<path d="M3938 2813 c6 -2 18 -2 25 0 6 3 1 5 -13 5 -14 0 -19 -2 -12 -5z"/>
<path d="M3416 2739 c21 -21 40 -39 43 -39 3 0 -7 13 -22 28 -15 16 -25 31
-22 34 3 3 -4 8 -16 11 -18 5 -15 -2 17 -34z"/>
<path d="M4110 2759 c0 -5 5 -7 10 -4 6 3 10 8 10 11 0 2 -4 4 -10 4 -5 0 -10
-5 -10 -11z"/>
<path d="M3523 2753 c9 -2 25 -2 35 0 9 3 1 5 -18 5 -19 0 -27 -2 -17 -5z"/>
<path d="M4168 2753 c6 -2 18 -2 25 0 6 3 1 5 -13 5 -14 0 -19 -2 -12 -5z"/>
<path d="M3628 2743 c6 -2 18 -2 25 0 6 3 1 5 -13 5 -14 0 -19 -2 -12 -5z"/>
<path d="M3708 2733 c7 -3 16 -2 19 1 4 3 -2 6 -13 5 -11 0 -14 -3 -6 -6z"/>
<path d="M3768 2723 c7 -3 16 -2 19 1 4 3 -2 6 -13 5 -11 0 -14 -3 -6 -6z"/>
<path d="M4008 2723 c7 -3 16 -2 19 1 4 3 -2 6 -13 5 -11 0 -14 -3 -6 -6z"/>
<path d="M3830 2711 c14 -4 48 -5 75 -1 47 7 45 7 -25 8 -48 0 -66 -2 -50 -7z"/>
<path d="M2503 2633 c9 -2 23 -2 30 0 6 3 -1 5 -18 5 -16 0 -22 -2 -12 -5z"/>
<path d="M2678 1513 c7 -3 16 -2 19 1 4 3 -2 6 -13 5 -11 0 -14 -3 -6 -6z"/>
<path d="M2458 1503 c6 -2 18 -2 25 0 6 3 1 5 -13 5 -14 0 -19 -2 -12 -5z"/>
<path d="M2548 1503 c18 -2 45 -2 60 0 15 2 0 4 -33 4 -33 0 -45 -2 -27 -4z"/>
<path d="M2428 1083 c17 -2 47 -2 65 0 17 2 3 4 -33 4 -36 0 -50 -2 -32 -4z"/>
</g>
</svg>
