<?xml version="1.0" standalone="no"?>
<!DOCTYPE svg PUBLIC "-//W3C//DTD SVG 20010904//EN"
 "http://www.w3.org/TR/2001/REC-SVG-20010904/DTD/svg10.dtd">
<svg version="1.0" xmlns="http://www.w3.org/2000/svg"
 width="2000.000000pt" height="2000.000000pt" viewBox="0 0 2000.000000 2000.000000"
 preserveAspectRatio="xMidYMid meet">

<g transform="translate(0.000000,2000.000000) scale(0.100000,-0.100000)"
fill="#000000" stroke="none">
<path d="M6426 16858 c-14 -46 -19 -362 -7 -438 24 -153 223 -503 481 -845 44
-59 82 -111 86 -116 3 -5 -11 -24 -30 -43 -35 -33 -36 -35 -36 -109 0 -136 41
-309 152 -647 65 -199 122 -335 195 -469 61 -112 205 -326 287 -425 63 -78 64
-80 50 -107 -31 -60 -10 -125 61 -187 84 -74 362 -237 739 -432 l175 -91 -30
-67 c-17 -36 -46 -114 -65 -172 -20 -57 -37 -106 -39 -108 -2 -2 -72 39 -157
91 -800 493 -1892 1066 -2718 1424 -604 263 -1176 458 -1591 543 -606 124
-1158 116 -1672 -25 -591 -162 -1068 -530 -1205 -930 -76 -225 -72 -500 14
-761 58 -179 191 -414 336 -592 146 -180 411 -414 575 -508 87 -50 298 -121
460 -155 l113 -24 10 -55 c67 -341 225 -640 464 -875 132 -129 257 -218 431
-305 228 -113 434 -168 713 -191 420 -35 1149 87 1932 325 779 236 1608 577
2138 879 67 38 124 68 127 66 2 -2 15 -46 30 -97 32 -111 79 -232 127 -327
l36 -70 -237 -81 c-320 -109 -489 -178 -726 -294 -230 -112 -389 -214 -484
-309 -81 -80 -106 -128 -95 -179 4 -21 8 -39 8 -42 1 -3 -42 -44 -94 -91 -183
-166 -370 -392 -564 -684 -199 -298 -363 -596 -486 -885 -72 -170 -77 -228
-25 -284 l25 -27 -74 -112 c-201 -305 -442 -785 -531 -1057 -49 -150 -102
-233 -207 -320 l-60 -50 67 0 c93 0 196 26 245 61 47 34 58 56 140 279 143
386 364 863 490 1052 l69 105 55 6 c71 7 152 51 181 97 13 19 55 134 95 255
206 631 449 1093 789 1498 41 49 70 76 79 72 27 -10 147 16 192 42 25 15 117
81 205 147 265 198 508 352 741 469 96 48 299 137 314 137 4 0 31 -28 59 -62
27 -35 68 -84 91 -109 l40 -47 -87 -88 c-49 -49 -127 -135 -175 -190 -88 -101
-88 -102 -189 -144 -595 -246 -1059 -596 -1322 -995 -74 -113 -120 -202 -153
-302 -30 -89 -35 -189 -12 -225 14 -22 11 -30 -43 -127 -188 -336 -333 -778
-425 -1291 -48 -266 -84 -620 -70 -692 6 -35 36 -76 69 -94 16 -9 17 -17 3
-110 -48 -317 -68 -776 -47 -1056 12 -154 11 -167 -8 -239 -11 -42 -33 -104
-50 -138 -17 -33 -31 -63 -31 -66 0 -10 101 34 151 65 67 43 116 103 126 154
5 22 6 75 2 116 -15 151 -22 859 -10 1025 17 232 17 232 55 239 49 9 122 60
153 107 l28 42 6 386 c7 406 19 566 64 825 42 243 106 476 191 701 33 87 36
91 79 108 72 30 114 82 240 292 215 361 334 525 510 700 103 104 177 165 279
230 l60 38 -21 -34 c-121 -198 -167 -279 -243 -432 -229 -458 -358 -902 -420
-1448 -100 -876 15 -1689 335 -2355 241 -502 553 -883 1004 -1223 543 -410
954 -919 999 -1238 13 -85 71 -85 84 0 45 319 456 828 999 1238 247 187 429
362 610 589 608 761 864 1811 729 2989 -62 546 -191 990 -420 1448 -76 153
-122 234 -243 432 l-21 34 60 -38 c102 -65 176 -126 279 -230 176 -175 295
-339 510 -700 126 -210 168 -262 240 -292 43 -17 46 -21 79 -108 85 -225 149
-458 191 -701 45 -259 57 -419 64 -825 l6 -386 28 -42 c31 -47 104 -98 153
-107 38 -7 38 -7 55 -239 12 -166 5 -874 -10 -1025 -4 -41 -3 -94 2 -116 10
-51 59 -111 126 -154 50 -31 151 -75 151 -65 0 3 -14 33 -31 66 -17 34 -39 96
-50 138 -19 72 -20 85 -8 239 21 280 1 739 -47 1056 -14 93 -13 101 3 110 33
18 63 59 69 94 14 72 -22 426 -70 692 -92 513 -237 955 -425 1291 -54 97 -57
105 -43 127 37 57 6 216 -72 370 -230 455 -744 874 -1414 1152 -100 42 -101
42 -189 143 -48 56 -127 142 -176 191 l-87 88 40 47 c23 25 64 74 91 109 28
34 55 62 59 62 15 0 218 -89 314 -137 233 -117 476 -271 741 -469 88 -66 180
-132 205 -147 45 -26 165 -52 192 -42 9 4 38 -23 79 -72 340 -405 581 -864
789 -1498 40 -121 82 -236 95 -255 29 -46 110 -90 181 -97 l55 -6 69 -105
c126 -189 347 -666 490 -1052 82 -223 93 -245 140 -279 49 -35 152 -61 245
-61 l67 0 -60 50 c-105 87 -158 170 -207 320 -89 272 -330 752 -531 1057 l-74
112 25 27 c52 56 47 114 -25 284 -123 289 -287 587 -486 885 -194 292 -381
518 -564 684 -52 47 -95 88 -94 91 0 3 4 21 8 42 11 51 -14 99 -95 179 -95 95
-254 197 -484 309 -237 116 -406 185 -726 294 l-237 81 36 70 c48 95 95 216
127 327 15 51 28 95 30 97 3 2 60 -28 127 -66 242 -138 569 -295 923 -443
1210 -505 2484 -813 3142 -761 281 22 488 77 718 191 174 87 299 176 431 305
239 235 397 534 464 875 l10 55 113 24 c162 34 373 105 460 155 181 103 458
355 610 553 248 325 367 635 368 953 1 302 -90 523 -305 748 -490 513 -1382
746 -2339 612 -510 -72 -1125 -265 -1877 -593 -825 -358 -1919 -931 -2717
-1423 -83 -52 -154 -94 -157 -94 -3 0 -14 31 -26 70 -11 38 -40 117 -64 174
l-44 106 174 90 c377 195 655 358 739 432 71 62 92 127 61 187 -14 27 -13 29
50 107 82 99 226 313 287 425 73 134 130 270 195 469 111 338 152 511 152 647
0 74 -1 76 -36 109 -19 19 -33 38 -30 43 4 5 42 57 86 116 169 224 332 484
420 668 64 133 74 200 67 422 -6 168 -12 215 -27 215 -12 0 -19 -25 -51 -185
-16 -82 -43 -197 -59 -255 -53 -186 -199 -450 -453 -815 -93 -134 -111 -155
-134 -155 -43 0 -110 -38 -133 -76 -24 -37 -49 -138 -135 -528 -100 -460 -223
-848 -334 -1055 l-18 -34 -69 2 c-58 2 -77 -2 -119 -24 -101 -54 -251 -195
-569 -537 l-128 -138 -55 88 c-118 188 -238 327 -387 447 -61 49 -85 74 -81
85 18 44 76 220 84 256 l11 40 67 0 c56 -1 76 4 114 26 83 49 129 151 129 288
0 95 -20 173 -67 263 -82 156 -233 250 -349 218 l-37 -10 -80 85 c-44 47 -108
105 -143 130 -39 28 -61 50 -57 57 44 74 316 497 350 546 l46 64 356 174 c196
96 363 178 370 182 22 11 49 52 57 84 l6 27 -93 -34 c-213 -77 -500 -214 -626
-296 -34 -23 -81 -62 -104 -88 -53 -60 -200 -282 -319 -482 -51 -85 -93 -156
-95 -158 -1 -1 -33 12 -71 29 -235 107 -533 107 -768 0 -38 -17 -70 -30 -71
-29 -2 2 -44 73 -95 158 -119 200 -266 422 -319 482 -23 26 -70 65 -104 88
-126 82 -413 219 -626 296 l-93 34 6 -27 c8 -32 35 -73 57 -84 7 -4 174 -86
370 -182 l356 -174 46 -64 c34 -49 306 -472 350 -546 4 -7 -18 -29 -57 -57
-35 -25 -99 -83 -143 -130 l-79 -85 -44 10 c-127 29 -276 -70 -355 -236 -42
-90 -58 -158 -57 -253 1 -135 45 -229 129 -279 40 -23 59 -28 116 -27 l67 0
11 -40 c8 -36 66 -212 84 -256 4 -11 -20 -36 -81 -85 -149 -120 -269 -259
-387 -447 l-55 -88 -128 138 c-318 342 -468 483 -569 537 -42 22 -61 26 -119
24 l-69 -2 -18 34 c-111 207 -234 595 -334 1055 -86 390 -111 491 -135 528
-23 38 -90 76 -133 76 -23 0 -41 21 -134 155 -254 365 -400 629 -453 815 -16
58 -43 173 -59 255 -16 83 -33 158 -37 168 -9 23 -20 21 -28 -5z m3982 -1991
c47 -48 51 -55 37 -67 -14 -12 -23 -6 -72 42 -51 51 -61 78 -30 78 7 0 36 -24
65 -53z m152 -179 c41 -64 93 -181 115 -263 25 -91 31 -282 11 -384 -17 -90
-28 -113 -47 -94 -8 8 -6 37 6 108 39 217 -8 438 -132 626 -24 37 -24 59 0 59
7 0 28 -24 47 -52z m-1396 23 c3 -5 -10 -42 -29 -83 -59 -124 -77 -212 -81
-387 -4 -174 -5 -177 -76 -168 -148 20 -191 277 -79 472 37 65 105 133 156
156 43 20 100 25 109 10z m1771 -5 c45 -19 128 -97 159 -150 131 -224 61 -515
-117 -482 l-32 6 -1 158 c-1 178 -18 262 -79 390 -19 41 -32 78 -29 83 8 14
60 11 99 -5z m-7494 -47 c74 -6 170 -16 214 -23 l79 -11 -3 -95 c-3 -111 10
-172 53 -255 30 -58 115 -154 165 -188 14 -9 23 -18 20 -21 -13 -13 -231 -29
-399 -29 -291 0 -530 38 -797 125 -190 62 -447 194 -590 303 l-42 32 25 12
c123 56 525 139 749 154 121 8 403 6 526 -4z m13839 -18 c206 -30 426 -82 543
-128 l37 -15 -42 -33 c-144 -109 -401 -241 -591 -303 -267 -87 -506 -125 -797
-125 -168 0 -386 16 -399 29 -3 3 6 12 20 21 50 34 135 130 165 188 43 83 56
144 53 255 l-3 95 84 12 c265 38 689 40 930 4z m-13320 -57 c861 -181 2116
-724 3610 -1562 113 -63 209 -118 215 -123 5 -5 -13 -3 -40 5 -1437 420 -2859
855 -3240 991 -55 20 -127 45 -160 57 -111 37 -258 98 -313 130 -198 113 -297
313 -256 515 5 26 -5 26 184 -13z m12264 14 c21 -106 10 -194 -39 -294 -40
-81 -127 -171 -217 -222 -55 -32 -202 -93 -313 -130 -33 -12 -105 -37 -160
-57 -381 -136 -1803 -571 -3240 -991 -27 -8 -45 -10 -40 -5 6 5 102 60 215
123 1339 751 2539 1288 3350 1500 126 33 402 95 432 97 4 1 10 -9 12 -21z
m-14073 -159 c127 -95 328 -207 487 -270 71 -29 233 -82 275 -90 12 -3 34 -41
65 -114 128 -297 399 -651 597 -780 l76 -50 -43 -9 c-59 -12 -326 8 -463 34
-235 46 -494 151 -685 278 -86 57 -100 70 -124 120 -51 104 -140 225 -245 334
-120 125 -197 190 -340 287 l-103 69 59 38 c102 65 356 194 384 194 3 0 30
-18 60 -41z m15934 -39 c77 -38 168 -88 203 -110 l64 -42 -103 -69 c-143 -97
-220 -162 -340 -287 -105 -109 -194 -230 -245 -334 -24 -50 -38 -63 -124 -120
-191 -127 -450 -232 -685 -278 -137 -26 -404 -46 -463 -34 l-43 9 76 50 c203
133 471 485 601 790 29 67 49 101 61 104 42 8 204 61 275 90 159 63 360 175
487 270 39 29 61 39 75 35 12 -3 84 -37 161 -74z m-16387 -231 c195 -131 374
-294 487 -444 95 -126 179 -301 200 -419 l8 -38 -77 62 c-238 192 -515 337
-741 387 -82 18 -271 21 -335 5 -24 -6 -46 -9 -48 -7 -5 5 57 125 91 174 55
80 147 181 235 256 48 41 91 75 95 75 5 0 43 -23 85 -51z m16772 -14 c135
-113 243 -243 307 -369 19 -37 33 -70 31 -71 -2 -2 -24 1 -48 7 -65 15 -254
12 -335 -5 -227 -50 -503 -195 -741 -387 l-77 -62 8 38 c21 118 105 293 199
418 71 93 203 229 301 308 79 64 256 187 269 188 4 0 43 -29 86 -65z m-15385
-114 c173 -34 322 -44 558 -38 122 2 258 10 303 17 l81 13 139 -55 c76 -31
152 -60 168 -65 25 -8 33 -19 53 -79 80 -238 327 -626 536 -841 l100 -103 -41
0 c-23 0 -93 -7 -156 -15 -111 -15 -118 -14 -263 10 -404 68 -782 200 -981
342 -121 86 -296 283 -412 463 -72 113 -202 370 -187 370 1 0 47 -9 102 -19z
m13923 -13 c-20 -57 -122 -250 -178 -338 -116 -180 -291 -377 -412 -463 -199
-142 -577 -274 -981 -342 -145 -24 -152 -25 -263 -10 -63 8 -133 15 -156 15
l-41 0 100 103 c209 215 456 603 536 841 20 60 28 71 53 79 16 5 92 34 168 65
l139 55 81 -13 c45 -7 185 -15 311 -17 235 -5 424 9 570 41 88 20 86 21 73
-16z m-12418 -203 c528 -177 1619 -511 2825 -865 l540 -158 165 -99 c287 -173
300 -182 300 -210 0 -56 -13 -63 -103 -57 -970 62 -2423 249 -2997 385 -178
42 -248 79 -360 190 -100 101 -234 273 -325 419 -104 167 -240 450 -217 450 4
0 82 -25 172 -55z m10983 8 c-24 -69 -139 -292 -208 -403 -91 -146 -225 -318
-325 -419 -112 -111 -182 -148 -360 -190 -574 -136 -2027 -323 -2997 -385 -90
-6 -103 1 -103 57 0 28 13 37 300 210 l165 99 540 158 c1226 360 2374 711
2835 869 80 27 150 50 157 50 8 1 7 -12 -4 -46z m-5336 1 c419 -64 798 -346
1037 -773 70 -123 175 -366 164 -377 -6 -5 -256 -64 -355 -83 -668 -132 -1498
-132 -2166 0 -99 19 -349 78 -355 83 -4 4 34 106 72 195 103 238 272 475 448
630 322 281 716 392 1155 325z m-8730 -145 c375 -51 861 -385 1312 -901 l33
-37 -134 64 c-73 35 -176 79 -228 97 -87 30 -105 32 -220 33 -92 0 -143 -5
-195 -19 -164 -44 -383 -155 -584 -294 l-94 -65 -24 29 c-38 47 -157 292 -186
384 -73 232 -84 443 -31 630 l16 58 56 11 c32 6 66 12 77 15 40 8 125 6 202
-5z m17270 -10 l51 -12 16 -57 c53 -187 42 -398 -31 -630 -29 -92 -148 -337
-186 -384 l-24 -29 -94 65 c-201 139 -420 250 -584 294 -52 14 -103 19 -195
19 -115 -1 -133 -3 -220 -33 -52 -18 -156 -62 -230 -98 -117 -57 -131 -61
-109 -37 14 15 68 75 120 132 105 116 278 277 414 387 252 202 532 347 755
389 84 16 236 14 317 -6z m-16326 -285 c78 -53 319 -168 429 -204 225 -74 404
-101 664 -100 l191 1 76 -35 c152 -71 524 -177 704 -202 56 -7 95 -23 59 -24
-49 0 -247 -65 -339 -110 -162 -80 -228 -162 -261 -324 -16 -75 -12 -159 12
-243 4 -13 2 -23 -2 -23 -5 0 -81 22 -169 48 -150 45 -166 52 -250 113 -129
93 -350 241 -490 326 -106 65 -130 84 -204 171 -99 115 -232 255 -354 370 -66
63 -87 89 -88 110 0 15 -8 57 -18 95 -9 37 -16 67 -15 67 1 0 26 -16 55 -36z
m15138 -31 c-10 -38 -18 -80 -18 -95 -1 -21 -22 -47 -88 -110 -122 -115 -255
-255 -354 -370 -74 -87 -98 -106 -204 -171 -142 -87 -400 -258 -505 -336 -68
-50 -90 -60 -235 -103 -88 -26 -164 -48 -169 -48 -4 0 -6 10 -2 23 24 84 28
168 12 243 -33 162 -99 244 -261 324 -92 45 -290 110 -339 110 -36 1 3 17 59
24 180 25 552 131 704 202 l76 35 191 -1 c259 -1 438 26 664 100 109 36 376
163 435 208 22 17 43 31 46 31 3 1 -3 -29 -12 -66z m-15174 -470 c124 -31 354
-139 580 -273 160 -95 548 -354 537 -358 -5 -1 -63 10 -128 27 -298 74 -525
111 -696 111 -97 0 -130 -4 -196 -25 -140 -44 -295 -150 -452 -309 -47 -47
-89 -86 -93 -86 -18 0 -217 173 -318 276 -99 102 -229 257 -229 272 0 4 40 34
88 68 245 171 501 289 683 313 74 10 139 6 224 -16z m15474 1 c99 -22 263 -91
395 -167 123 -70 296 -186 296 -199 0 -15 -130 -170 -229 -272 -101 -103 -300
-276 -318 -276 -4 0 -46 39 -93 86 -157 159 -312 265 -452 309 -164 52 -452
24 -892 -86 -65 -17 -123 -28 -128 -27 -11 4 373 260 537 358 153 91 417 222
517 254 140 47 225 51 367 20z m-12709 -72 c193 -69 789 -171 1585 -271 592
-75 1206 -136 1482 -147 l154 -7 -7 -46 c-4 -25 -8 -48 -10 -50 -3 -3 -64 1
-137 8 -545 50 -957 65 -1572 58 -641 -7 -1142 -39 -1615 -103 -373 -50 -545
-97 -789 -215 -79 -38 -146 -69 -150 -69 -12 0 -70 104 -91 164 -57 168 -17
367 93 462 56 47 176 107 287 142 150 47 243 65 555 106 61 8 132 -3 215 -32z
m10040 7 c306 -45 541 -125 657 -223 110 -95 150 -294 93 -462 -21 -60 -79
-164 -91 -164 -4 0 -71 31 -150 69 -244 118 -416 165 -789 215 -473 64 -974
96 -1615 103 -615 7 -1027 -8 -1572 -58 -73 -7 -134 -11 -137 -8 -2 2 -6 25
-10 50 l-7 46 154 7 c378 16 1346 121 2042 222 581 84 1037 177 1105 224 19
14 139 6 320 -21z m-4048 -424 c23 -76 23 -97 1 -93 -17 3 -66 135 -56 151 14
23 38 -2 55 -58z m-8173 -71 c234 -39 619 -134 911 -224 l98 -30 36 -61 c20
-33 36 -63 36 -67 0 -4 -24 -21 -53 -39 -74 -45 -188 -131 -269 -204 l-70 -62
-171 7 c-669 27 -1177 116 -1439 253 -38 20 -68 39 -68 44 0 18 177 187 258
247 102 76 225 138 312 157 84 19 226 12 419 -21z m14416 21 c145 -30 327
-145 488 -307 48 -48 87 -92 87 -97 0 -5 -30 -24 -67 -44 -263 -137 -771 -226
-1440 -253 l-171 -7 -70 62 c-81 73 -195 159 -269 204 -29 18 -53 35 -53 39 0
4 16 34 36 67 l36 61 98 30 c270 83 661 181 882 220 226 40 340 47 443 25z
m-9870 -35 c231 -11 547 -34 723 -52 108 -11 113 -12 108 -32 -3 -12 -6 -28
-6 -37 0 -15 -33 -17 -312 -22 -373 -6 -580 -27 -888 -88 -297 -59 -624 -182
-820 -307 -53 -33 -60 -35 -205 -48 -302 -26 -1155 -78 -1162 -70 -2 1 32 13
74 25 129 37 360 130 504 202 196 98 334 193 463 321 l109 107 91 4 c230 8
1133 6 1321 -3z m6430 -106 c209 -208 496 -368 920 -510 l130 -44 -95 5 c-436
23 -954 57 -1136 74 -78 8 -99 14 -145 44 -195 124 -523 247 -819 306 -308 61
-515 82 -887 88 -280 5 -313 7 -313 22 0 9 -3 25 -6 37 -5 20 0 21 108 32 156
16 490 41 688 51 91 5 453 8 805 7 l640 -2 110 -110z m-7932 70 c-23 -35 -156
-150 -246 -212 -168 -116 -404 -227 -669 -316 -324 -109 -293 -105 -837 -113
-262 -3 -490 -3 -505 1 -28 7 -28 7 -10 28 33 35 186 153 276 212 178 116 424
224 627 276 161 41 570 95 941 125 107 8 213 17 235 18 22 2 77 4 123 5 l82 2
-17 -26z m8402 -5 c378 -33 716 -79 876 -119 201 -51 449 -160 627 -276 90
-59 243 -177 276 -212 18 -21 18 -21 -10 -28 -15 -4 -243 -4 -505 -1 -467 7
-478 7 -575 32 -251 65 -582 193 -776 301 -158 88 -378 258 -409 317 -11 20
-11 20 127 13 77 -4 243 -16 369 -27z m-3222 -154 c23 -203 -42 -643 -97 -653
-22 -5 -21 11 18 174 32 135 46 303 39 448 -6 102 -5 108 13 104 16 -3 20 -16
27 -73z m-2860 18 c2 -5 2 -42 -1 -85 l-4 -76 -32 -6 c-263 -47 -1818 -222
-1900 -214 -27 3 -17 10 84 62 414 211 957 316 1682 324 92 1 169 -1 171 -5z
m3945 -18 c493 -46 866 -140 1177 -299 105 -53 116 -61 89 -64 -82 -8 -1637
167 -1900 214 l-32 6 -4 76 c-3 43 -2 81 0 86 7 13 469 0 670 -19z m-3944
-247 c17 -64 25 -59 -231 -122 -416 -102 -838 -230 -1123 -341 -171 -66 -390
-180 -484 -252 -49 -37 -98 -73 -110 -80 -21 -12 -474 -39 -484 -28 -3 2 35
45 84 93 184 183 535 372 1019 550 148 54 153 55 395 83 228 27 732 92 845
109 79 12 82 11 89 -12z m3611 -23 c143 -18 361 -46 485 -60 124 -14 254 -30
290 -34 183 -24 781 -285 1035 -452 102 -67 296 -241 283 -254 -10 -11 -463
16 -484 28 -12 7 -61 43 -110 80 -94 72 -313 186 -484 252 -285 111 -707 239
-1122 341 -258 63 -249 58 -232 122 6 20 11 23 43 18 20 -4 153 -22 296 -41z
m-3589 -170 c14 -96 25 -83 -158 -185 -480 -269 -1193 -569 -1888 -794 -128
-42 -236 -74 -238 -72 -10 11 64 129 128 203 74 87 218 220 328 302 183 138
597 306 1122 457 236 68 651 173 675 171 16 -2 21 -14 31 -82z m3508 25 c757
-190 1314 -395 1548 -571 109 -82 254 -215 328 -302 64 -74 138 -192 128 -203
-2 -2 -110 30 -238 72 -695 225 -1408 525 -1888 794 -183 102 -172 89 -157
185 7 44 13 81 14 83 3 6 40 -2 265 -58z m-4905 16 c-2 -2 -69 -29 -149 -61
-80 -32 -209 -88 -287 -125 -134 -64 -151 -70 -345 -109 -1223 -247 -2177
-235 -2578 31 -53 36 -128 105 -119 111 2 1 126 -1 274 -5 275 -8 976 4 1346
22 533 27 1300 85 1714 130 80 8 150 12 144 6z m6257 -16 c1072 -106 2265
-163 2984 -142 140 4 257 6 259 5 9 -6 -66 -75 -119 -111 -401 -266 -1355
-278 -2578 -31 -194 39 -211 45 -345 109 -78 37 -207 93 -287 125 -80 32 -147
59 -149 61 -8 7 36 4 235 -16z m-10316 -90 c91 -10 243 -24 339 -31 l174 -12
62 -62 c34 -34 93 -81 131 -103 72 -43 201 -98 254 -108 16 -4 30 -9 30 -13 0
-10 -118 -85 -191 -121 -172 -87 -339 -129 -545 -137 -83 -3 -176 -3 -207 1
l-56 7 -45 77 c-77 131 -142 302 -180 471 l-15 63 42 -6 c23 -4 116 -15 207
-26z m14374 -32 c-38 -168 -104 -339 -180 -470 l-45 -77 -56 -7 c-31 -4 -124
-4 -207 -1 -206 8 -373 50 -545 137 -73 36 -191 111 -191 121 0 4 14 9 30 13
53 10 182 65 254 108 38 22 97 69 131 103 l62 61 229 18 c126 10 288 26 359
36 195 26 176 31 159 -42z m-8661 -182 c375 -149 834 -226 1357 -226 524 0
982 76 1358 226 63 25 116 43 119 40 3 -3 -7 -42 -22 -88 -167 -503 -511 -866
-963 -1018 -290 -97 -694 -97 -984 0 -451 151 -794 513 -962 1014 -27 81 -30
96 -20 96 3 0 56 -20 117 -44z m-2354 0 c-2 -2 -51 -35 -109 -74 -127 -85
-214 -162 -263 -234 l-37 -53 -224 -23 c-123 -12 -315 -36 -427 -53 -112 -17
-262 -39 -334 -49 -403 -59 -769 -49 -1083 30 -111 28 -248 75 -265 90 -5 4
24 20 65 35 92 35 202 93 295 156 72 49 73 49 120 39 250 -56 723 -69 1156
-30 306 27 946 125 1106 169 2 0 2 -1 0 -3z m7836 -75 c206 -35 514 -75 692
-91 433 -39 906 -26 1156 30 47 10 48 10 120 -39 93 -63 203 -121 295 -156 41
-15 70 -31 65 -35 -17 -15 -154 -62 -265 -90 -314 -79 -680 -89 -1083 -30 -71
10 -222 32 -334 49 -112 17 -304 41 -427 53 l-224 23 -37 53 c-49 72 -136 149
-263 234 -58 39 -106 71 -108 73 -1 1 51 -9 115 -21 65 -13 199 -37 298 -53z
m-10552 -346 c124 -49 262 -86 407 -110 137 -22 400 -38 510 -32 108 7 106 5
-78 -54 -250 -80 -455 -198 -535 -308 -23 -32 -46 -66 -52 -75 -9 -15 -16 -15
-80 7 -235 80 -444 208 -612 374 -58 57 -173 192 -173 202 0 4 82 7 183 8 121
1 202 6 242 16 33 8 64 15 68 16 5 0 59 -19 120 -44z m2714 -27 c-88 -89 -174
-202 -215 -284 l-31 -61 -183 -51 c-691 -193 -1296 -280 -1679 -242 -98 10
-293 45 -311 56 -12 7 18 59 60 106 228 252 942 443 1957 522 279 22 279 22
382 24 l92 2 -72 -72z m7838 46 c1027 -85 1720 -271 1947 -522 42 -47 72 -99
60 -106 -18 -11 -213 -46 -311 -56 -383 -38 -988 49 -1679 242 l-183 51 -31
61 c-41 83 -127 196 -216 285 l-74 74 153 -7 c85 -4 235 -13 334 -22z m2550 0
c66 -10 145 -14 233 -12 72 2 132 1 132 -3 0 -10 -115 -145 -173 -202 -168
-166 -377 -294 -612 -374 -64 -22 -71 -22 -80 -7 -5 9 -29 43 -52 75 -80 110
-285 228 -535 308 -184 59 -186 61 -78 54 110 -6 373 10 510 32 146 24 285 62
400 110 61 25 115 41 130 39 14 -2 70 -11 125 -20z m-5638 -787 c38 -40 91
-103 118 -141 60 -85 167 -294 163 -320 -6 -38 -27 -27 -49 26 -66 153 -159
297 -266 409 -69 72 -82 99 -49 99 8 0 45 -33 83 -73z m346 -641 c13 -49 15
-72 8 -79 -17 -17 -36 10 -50 65 -16 68 -14 90 6 86 13 -2 23 -24 36 -72z
m-3097 -167 c334 -144 733 -240 1184 -286 246 -25 814 -25 1060 0 453 46 847
142 1188 287 67 29 124 51 126 49 14 -15 133 -267 176 -374 78 -193 180 -507
180 -556 0 -49 -463 -236 -810 -328 -848 -224 -1932 -224 -2780 0 -347 92
-810 279 -810 328 0 21 67 251 103 356 65 185 239 575 257 575 4 0 61 -23 126
-51z m-407 -1918 c315 -214 892 -387 1481 -443 131 -12 161 -22 138 -43 -27
-25 -511 40 -778 105 -340 83 -663 212 -862 344 -54 35 -67 53 -51 69 9 10 9
10 72 -32z m-115 -285 c333 -184 826 -330 1349 -400 323 -44 450 -51 887 -51
437 0 564 7 887 51 523 70 1016 216 1349 400 49 27 93 51 97 53 9 3 4 -104
-14 -314 -12 -142 -32 -288 -60 -440 l-21 -110 -56 -54 c-175 -165 -531 -337
-912 -440 -122 -33 -364 -79 -530 -100 -253 -33 -428 -43 -740 -43 -663 0
-1175 83 -1635 264 -211 84 -437 215 -547 319 l-56 54 -21 110 c-28 152 -48
298 -60 440 -18 210 -23 317 -14 314 4 -2 48 -26 97 -53z m2090 -196 c22 -21
-11 -30 -113 -30 -78 0 -112 4 -120 13 -21 27 8 34 117 29 59 -2 111 -8 116
-12z m1856 -1258 c0 -32 -78 -182 -95 -182 -23 0 -19 20 25 114 24 54 45 86
55 86 8 0 15 -8 15 -18z m-134 -257 c7 -17 -98 -180 -195 -305 -81 -104 -259
-290 -277 -290 -28 0 -12 27 62 105 108 114 219 254 309 389 42 64 81 116 86
116 5 0 12 -7 15 -15z m-2726 -750 c678 -170 1360 -190 2035 -59 141 28 362
81 464 113 l64 20 -74 -75 c-96 -98 -223 -207 -375 -322 -132 -100 -265 -212
-359 -303 l-60 -58 -120 -25 c-292 -60 -558 -60 -850 0 l-120 25 -60 58 c-94
91 -227 203 -359 303 -152 115 -279 224 -375 322 l-74 75 64 -20 c35 -11 125
-35 199 -54z"/>
<path d="M9635 13624 c-140 -49 -122 -82 21 -36 58 20 90 35 92 46 5 23 -28
20 -113 -10z"/>
<path d="M9339 13478 c-184 -121 -384 -348 -502 -568 -56 -106 -62 -126 -42
-134 11 -4 26 17 59 82 89 176 225 354 371 482 61 54 124 99 228 164 29 18 28
36 -2 36 -10 0 -60 -28 -112 -62z"/>
<path d="M10840 10824 c-45 -36 -59 -57 -42 -68 15 -9 112 65 112 85 0 27 -19
23 -70 -17z"/>
<path d="M10648 10705 c-322 -166 -735 -184 -1135 -50 -58 19 -109 33 -114 29
-33 -20 30 -50 195 -94 158 -42 290 -60 451 -60 155 0 275 16 410 55 106 31
280 114 280 134 0 24 -17 21 -87 -14z"/>
<path d="M11510 6281 c-29 -17 -257 -90 -390 -125 -281 -73 -560 -113 -873
-123 -173 -5 -197 -8 -195 -22 7 -34 476 -10 768 40 280 48 741 185 748 222 4
19 -31 23 -58 8z"/>
<path d="M9762 6033 c3 -15 19 -20 91 -27 87 -9 114 -3 99 20 -4 6 -49 14
-100 18 -87 6 -93 6 -90 -11z"/>
<path d="M9150 4441 c0 -17 26 -29 110 -50 196 -48 318 -63 557 -68 245 -6
283 -3 283 24 0 14 -13 15 -118 9 -203 -11 -508 20 -716 74 -86 22 -116 25
-116 11z"/>
<path d="M10240 4386 c-38 -8 -56 -17 -58 -29 -4 -20 6 -21 82 -6 42 9 56 16
54 27 -4 21 -14 22 -78 8z"/>
</g>
</svg>
